<svg xmlns="http://www.w3.org/2000/svg" viewBox="0 0 166.69 167.01"><defs><style>.cls-1,.cls-6{opacity:0.7;}.cls-2{fill:#fff;}.cls-3{fill:red;}.cls-4{fill:#999;}.cls-5,.cls-6{fill:none;stroke:#fff;stroke-miterlimit:10;stroke-width:0.5px;}.cls-5{stroke-dasharray:0.86 0.86;}</style></defs><title>logo</title><g id="Layer_2" data-name="Layer 2"><path d="M82.82,4.05c1.34-2.41,3.52-2.41,4.86,0s3.77,2.56,5.4.34,3.8-1.95,4.82.61,3.42,3,5.31,1,4-1.45,4.71,1.21,3,3.42,5.14,1.67,4.17-.94,4.53,1.79,2.55,3.77,4.89,2.31,4.25-.42,4.26,2.34,2.07,4.06,4.56,2.9,4.27.12,3.94,2.86,1.54,4.28,4.16,3.44,4.22.66,3.55,3.33,1,4.44,3.7,3.94,4.1,1.18,3.1,3.75.43,4.53,3.18,4.37,3.92,1.69,2.6,4.11-.14,4.55,2.61,4.73,3.68,2.17,2.07,4.4-.72,4.5,2,5,3.38,2.61,1.5,4.63-1.27,4.37,1.35,5.23,3,3,.91,4.78-1.81,4.18.67,5.36,2.63,3.37.31,4.86-2.32,3.92,0,5.4,2.18,3.67-.31,4.86-2.79,3.59-.67,5.36,1.7,3.92-.91,4.78-3.23,3.22-1.35,5.23,1.2,4.1-1.5,4.63-3.6,2.79-2,5,.68,4.22-2.07,4.41-3.92,2.31-2.61,4.73.15,4.27-2.6,4.11-4.18,1.81-3.18,4.37-.39,4.26-3.1,3.75-4.37,1.27-3.7,3.94-.92,4.17-3.55,3.33-4.49.71-4.16,3.45-1.44,4-3.94,2.85-4.55.15-4.56,2.9-1.93,3.81-4.26,2.34-4.54-.43-4.89,2.31-2.4,3.53-4.53,1.79-4.44-1-5.14,1.67-2.81,3.21-4.71,1.21-4.28-1.55-5.31,1-3.2,2.83-4.82.61-4.06-2.07-5.4.34-3.52,2.41-4.86,0-3.77-2.56-5.4-.34-3.8,1.95-4.82-.61-3.42-3-5.31-1-4,1.45-4.71-1.21-3-3.42-5.14-1.67-4.17.94-4.53-1.79-2.56-3.77-4.89-2.31-4.25.42-4.26-2.34-2.07-4.06-4.56-2.9-4.27-.12-3.94-2.85-1.54-4.29-4.16-3.45-4.22-.66-3.55-3.33-1-4.44-3.7-3.94-4.1-1.18-3.1-3.75-.43-4.53-3.18-4.37-3.92-1.69-2.6-4.11.14-4.55-2.61-4.73-3.68-2.17-2.07-4.41.72-4.49-2-5-3.38-2.61-1.5-4.63,1.27-4.37-1.35-5.23-3-3-.91-4.78,1.81-4.18-.67-5.36-2.63-3.37-.31-4.86,2.32-3.92,0-5.4-2.18-3.67.31-4.86,2.79-3.59.67-5.36-1.7-3.92.91-4.78,3.23-3.22,1.35-5.23-1.2-4.1,1.5-4.63,3.6-2.79,2-5-.68-4.21,2.07-4.4S16.28,46.45,15,44s-.15-4.27,2.6-4.11,4.18-1.81,3.18-4.37.39-4.26,3.1-3.75,4.37-1.27,3.7-3.94.92-4.17,3.55-3.33,4.49-.71,4.16-3.45,1.44-4,3.94-2.85,4.55-.14,4.56-2.9S45.69,11.52,48,13s4.54.43,4.89-2.31,2.4-3.53,4.53-1.79,4.44,1,5.14-1.67S65.39,4,67.29,6s4.28,1.55,5.31-1,3.19-2.83,4.82-.61S81.48,6.46,82.82,4.05Z" transform="translate(-1.91 -2.24)"/></g><g id="Layer_4" data-name="Layer 4"><g class="cls-1"><path class="cls-2" d="M19.24,61.8s0,0-.07,0-.28,0-.31,0a.1.1,0,0,0,.08.12c.11.05.34-.06.74-.27a1.16,1.16,0,0,1,1.06-.16.93.93,0,0,1,.63,1.28c-.13.38-.52.81-1.47.47,0,0,0,0,0-.06L20,62.6a.06.06,0,0,1,.06,0c.2.06.35,0,.38,0a.09.09,0,0,0-.07-.12c-.13,0-.42.09-.8.31a1.21,1.21,0,0,1-1.07.11A.94.94,0,0,1,18,61.61,1,1,0,0,1,19.41,61a.05.05,0,0,1,0,.07Z" transform="translate(-1.91 -2.24)"/><path class="cls-2" d="M19.27,60.78a1,1,0,0,1,.78-1.91l1.58.62a1,1,0,0,1-.75,1.92Zm1.81-.3c.07,0,.12,0,.15,0a.1.1,0,0,0-.08-.13l-1.33-.52a.1.1,0,0,0-.14,0c0,.06,0,.11.07.14Z" transform="translate(-1.91 -2.24)"/><path class="cls-2" d="M23.75,56.8s.06,0,0,.08l-.32.73a.05.05,0,0,1-.08,0l-2.22-1c-.09,0-.14,0-.16,0s0,.11.08.14l2.22,1s.05,0,0,.08l-.33.75s0,0-.07,0l-2.24-1a.1.1,0,0,0-.15,0s0,.1.07.13l2.25,1a0,0,0,0,1,0,.06l-.33.75s0,0-.06,0l-3.2-1.4s0-.05,0-.07l.31-.72s.27,0,.29,0,0,0,0-.08a.62.62,0,0,1,0-.5.58.58,0,0,1,.38-.33c.05,0,.08,0,.08,0a.08.08,0,0,0,0-.08.71.71,0,0,1,0-.54.6.6,0,0,1,.8-.27Z" transform="translate(-1.91 -2.24)"/><path class="cls-2" d="M21.54,55.52a.94.94,0,0,1-.41-1.35,1,1,0,0,1,1.46-.47l.33.16s0,0,0,.07l-.44.9s0,0,0,.05l.84.42c.09,0,.14,0,.16,0s0-.1-.07-.14L23.13,55a0,0,0,0,1,0-.07l.37-.68a.08.08,0,0,1,.09,0l.34.17a.94.94,0,0,1,.42,1.4,1,1,0,0,1-1.47.4Zm.63-.81s0,0,0,0,.07-.14,0-.15c-.34-.17-.38-.19-.42-.1s0,.1.07.14Z" transform="translate(-1.91 -2.24)"/><path class="cls-2" d="M22.92,52.82s0,0-.05,0-.07.12-.1.1L22,52.52s0,0,0,0,.07-.13,0-.15l-.47-.25s0,0,0-.06l.4-.76s0,0,.08,0l.44.23a0,0,0,0,0,.07,0c.09-.17.1-.18.14-.16l.76.41a0,0,0,0,1,0,0c-.09.17-.1.19-.06.21l1.39.74s.05,0,.06,0c.1-.18.11-.2.14-.19.3.17.82.44.54,1-.17.32-.49.45-1.13.11Z" transform="translate(-1.91 -2.24)"/><path class="cls-2" d="M22.72,51.17s0,0,0,0l.41-.72s0,0,.06,0l.84.33h0s0,0,0,0l-.71-.6s0,0,0,0l.39-.69s0,0,0,0l3.42,2.92a.06.06,0,0,1,0,.07l-.38.66a0,0,0,0,1-.07,0l-1.18-1a.18.18,0,0,0-.07,0Z" transform="translate(-1.91 -2.24)"/><path class="cls-2" d="M24.26,48.44s.17,0,.19,0a.37.37,0,0,0,0-.08.67.67,0,0,1,.1-.35c.15-.26.51-.44,1.35.07l1.07.66c.77.47.78.92.62,1.18a.46.46,0,0,1-.28.22l-.07,0s0,0,0,0l.82.5a.05.05,0,0,1,0,.08l-.4.66a.06.06,0,0,1-.08,0l-3.74-2.29a.07.07,0,0,1,0-.07Zm2.17,1.24a.14.14,0,0,0,.19,0s0-.09-.06-.13l-1.29-.78a.08.08,0,0,0-.13,0,.09.09,0,0,0,0,.07.17.17,0,0,0,.07.1Z" transform="translate(-1.91 -2.24)"/><path class="cls-2" d="M25.81,47.78a.94.94,0,0,1-.25-1.39,1.05,1.05,0,0,1,1.51-.28l.31.2a0,0,0,0,1,0,.07l-.55.84a0,0,0,0,0,0,.05l.79.52c.08.05.13,0,.16,0s0-.1,0-.15l-.31-.2a0,0,0,0,1,0-.07l.46-.62s.06,0,.09,0l.32.21a.94.94,0,0,1,.24,1.45,1,1,0,0,1-1.5.22Zm.72-.73a0,0,0,0,0,0,0c.08-.12.09-.13.06-.15-.32-.21-.36-.22-.41-.14s0,.09.06.14Z" transform="translate(-1.91 -2.24)"/><path class="cls-2" d="M25.92,44.21s0-.07,0-.1l.49-.69a.05.05,0,0,1,.08,0l.89.63s.05,0,.05,0,0,0,0-.07a.6.6,0,0,1,.1-.44.56.56,0,0,1,.84-.11l2.39,1.72a0,0,0,0,1,0,.05l-.49.67s0,0-.05,0l-2-1.45c-.07,0-.12,0-.15,0s0,.09,0,.15l2,1.44a0,0,0,0,1,0,.06l-.5.7s-.05,0-.07,0Z" transform="translate(-1.91 -2.24)"/><path class="cls-2" d="M28.8,43.44A1,1,0,0,1,28.66,42a1.05,1.05,0,0,1,1.53-.17l.29.22a.06.06,0,0,1,0,.08l-.61.79s0,0,0,.06l.74.57c.08.06.13.05.16,0s0-.1,0-.16l-.29-.22s0,0,0-.07l.5-.59s.06,0,.09,0l.3.23a.94.94,0,0,1,.14,1.46,1,1,0,0,1-1.52.1Zm.78-.67s0,0,0,0,.1-.12.08-.14c-.31-.23-.35-.25-.4-.17s0,.09,0,.14Z" transform="translate(-1.91 -2.24)"/><path class="cls-2" d="M29.52,41s0,0,0-.06L30,40.3s.2.06.22,0a.18.18,0,0,0,0,0c-.08-.14,0-.24.12-.39h.05l.67.55s0,0,0,.06c-.19.23-.14.43.23.73l1.51,1.23a.06.06,0,0,1,0,.08l-.56.68s0,0-.06,0Z" transform="translate(-1.91 -2.24)"/><path class="cls-2" d="M31.29,40.3a.94.94,0,0,1-.07-1.41,1.06,1.06,0,0,1,1.54-.08l.27.24a0,0,0,0,1,0,.07l-.65.76s0,0,0,.06l.71.61c.07.06.13.05.16,0s0-.09,0-.15L33,40.17a.06.06,0,0,1,0-.07l.54-.56a.08.08,0,0,1,.09,0l.29.25a.93.93,0,0,1,0,1.46,1,1,0,0,1-1.52,0Zm.81-.62s0,0,0,0,.1-.12.08-.14c-.29-.25-.33-.27-.39-.2s0,.09,0,.15Z" transform="translate(-1.91 -2.24)"/><path class="cls-2" d="M112.42,20.66s0,0,.09-.3a1,1,0,0,1,1.85.78l-.65,1.49s0,.05.12.1a0,0,0,0,1,0,.06l-.14.34a.67.67,0,0,1-.8.36.49.49,0,0,1-.35-.4c0-.05,0-.07,0-.07s0,0-.08,0a.5.5,0,0,1-.47,0,.69.69,0,0,1-.25-1l.18-.41a.91.91,0,0,1,.93-.54c.48,0,.53,0,.61-.23s0-.13,0-.16-.11,0-.21.25c0,0,0,0-.07,0Zm.62,1.19a0,0,0,0,0,0-.06.17.17,0,0,0-.21.11l-.18.4a.09.09,0,0,0,.05.13.1.1,0,0,0,.13-.05Z" transform="translate(-1.91 -2.24)"/><path class="cls-2" d="M113.59,23.77a0,0,0,0,1,0-.07l1.49-3.15s0,0,.05,0l.68.32s0,.26,0,.27h0a.51.51,0,0,1,.51,0,.6.6,0,0,1,.26.83l-1.25,2.64s0,0,0,0l-.75-.35a0,0,0,0,1,0-.06l1-2.21c0-.08,0-.12,0-.14s-.09,0-.13.06l-1,2.22s0,0-.06,0Z" transform="translate(-1.91 -2.24)"/><path class="cls-2" d="M116.56,25.22s0-.17,0-.18h-.09a.61.61,0,0,1-.36-.06c-.26-.14-.47-.48,0-1.36l.57-1.11c.41-.81.85-.85,1.13-.71a.43.43,0,0,1,.24.27.1.1,0,0,0,0,.06s0,0,0,0l.48-.94s0,0,.08,0l.69.35a.05.05,0,0,1,0,.07l-2,4a0,0,0,0,1-.07,0ZM117.63,23a.14.14,0,0,0,0-.19s-.1,0-.13.06l-.68,1.34a.09.09,0,0,0,0,.14h.07a.14.14,0,0,0,.09-.08Z" transform="translate(-1.91 -2.24)"/><path class="cls-2" d="M120.12,24.49s0,0,0-.07.1-.27,0-.31a.1.1,0,0,0-.13.05c-.06.11,0,.35.15.78a1.17,1.17,0,0,1,0,1.07.92.92,0,0,1-1.36.4c-.34-.2-.7-.66-.21-1.53,0,0,0,0,.07,0l.58.29a0,0,0,0,1,0,.06c-.09.19-.09.34,0,.39a.1.1,0,0,0,.13-.05c.07-.13,0-.44-.17-.85a1.18,1.18,0,0,1,.08-1.07.93.93,0,0,1,1.29-.34,1,1,0,0,1,.32,1.51.06.06,0,0,1-.08,0Z" transform="translate(-1.91 -2.24)"/><path class="cls-2" d="M121.13,24.69a1,1,0,0,1,1.74,1.1L122,27.24a1,1,0,0,1-1.76-1.07Zm0,1.83a.1.1,0,0,0,0,.16c.05,0,.1,0,.14-.06l.74-1.21a.11.11,0,0,0,0-.16.1.1,0,0,0-.14.06Z" transform="translate(-1.91 -2.24)"/><path class="cls-2" d="M124.3,29.8a.06.06,0,0,1-.09,0l-.66-.44a.06.06,0,0,1,0-.09l1.34-2a.11.11,0,0,0,0-.16s-.1,0-.15.06l-1.35,2a0,0,0,0,1-.07,0l-.69-.45a.06.06,0,0,1,0-.08l1.35-2c0-.08,0-.13,0-.15s-.1,0-.15,0l-1.36,2.05s0,0-.06,0l-.68-.46a0,0,0,0,1,0-.06l1.93-2.91a0,0,0,0,1,.07,0l.66.43s-.08.26,0,.28h.08a.62.62,0,0,1,.49.07.55.55,0,0,1,.26.44c0,.05,0,.07,0,.08a.07.07,0,0,0,.08,0,.72.72,0,0,1,.54.09.6.6,0,0,1,.12.83Z" transform="translate(-1.91 -2.24)"/><path class="cls-2" d="M125.91,27.82a.94.94,0,0,1,1.4-.18,1,1,0,0,1,.22,1.52l-.22.3s0,0-.07,0l-.81-.59s0,0-.06,0l-.55.76c-.06.08,0,.13,0,.16s.1,0,.15,0l.22-.3a0,0,0,0,1,.07,0l.6.49a.08.08,0,0,1,0,.09l-.23.31a.93.93,0,0,1-1.45.17A1,1,0,0,1,125,29Zm.7.75s0,0,0,.05.12.09.14.07c.23-.31.24-.35.17-.41s-.1,0-.15,0Z" transform="translate(-1.91 -2.24)"/><path class="cls-2" d="M128.34,29.65a0,0,0,0,0,0-.06c-.1-.07-.11-.08-.08-.11l.54-.69a0,0,0,0,1,0,0c.11.08.12.09.14,0l.32-.41a0,0,0,0,1,.06,0l.68.53c.05,0,0,0,0,.08l-.31.4a0,0,0,0,0,0,.07c.15.11.16.12.14.16l-.54.68s0,0-.06,0-.16-.13-.19-.09l-1,1.24a.06.06,0,0,0,0,.06c.17.13.19.14.16.17-.21.27-.57.73-1,.36-.28-.22-.36-.56.09-1.12Z" transform="translate(-1.91 -2.24)"/><path class="cls-2" d="M130,29.74a0,0,0,0,1,.05,0l.64.53a0,0,0,0,1,0,.06l-.47.78s0,0,0,.05l0,0,.71-.6a0,0,0,0,1,.05,0l.61.5s0,0,0,0l-3.45,2.88a.08.08,0,0,1-.08,0l-.59-.48a0,0,0,0,1,0-.07l1.17-1a.19.19,0,0,0,.06-.07Z" transform="translate(-1.91 -2.24)"/><path class="cls-2" d="M132.43,31.71s0,.17,0,.19h.08a.58.58,0,0,1,.33.15c.23.2.34.58-.3,1.32l-.83.94c-.6.69-1,.62-1.27.42a.48.48,0,0,1-.17-.32s0-.06,0-.07l0,0-.63.72a.05.05,0,0,1-.08,0l-.59-.51a.05.05,0,0,1,0-.08l2.89-3.29a.06.06,0,0,1,.07,0Zm-1.58,1.93a.13.13,0,0,0,0,.19s.09,0,.14,0l1-1.13s.07-.08,0-.13l-.06,0a.16.16,0,0,0-.12.06Z" transform="translate(-1.91 -2.24)"/><path class="cls-2" d="M132.83,33.36a1,1,0,0,1,1.42,0,1,1,0,0,1,0,1.53l-.24.27a.06.06,0,0,1-.08,0l-.73-.68s0,0-.06,0l-.64.69c-.07.07-.06.12,0,.16s.09,0,.16,0l.24-.27a.06.06,0,0,1,.08,0l.53.55a.07.07,0,0,1,0,.09l-.26.28a.94.94,0,0,1-1.47,0,1,1,0,0,1,0-1.51Zm.6.84s0,0,0,0,.11.11.14.09c.26-.28.28-.31.21-.38s-.09,0-.15,0Z" transform="translate(-1.91 -2.24)"/><path class="cls-2" d="M136.33,34.08s.07,0,.1,0l.59.61s0,0,0,.08l-.78.76s0,0,0,0l.07,0a.55.55,0,0,1,.41.18.55.55,0,0,1,0,.84l-2.1,2.06h0l-.58-.59a0,0,0,0,1,0-.06l1.77-1.74c.06-.06,0-.12,0-.15s-.09-.05-.16,0l-1.76,1.73s-.05,0-.06,0l-.6-.61a0,0,0,0,1,0-.07Z" transform="translate(-1.91 -2.24)"/><path class="cls-2" d="M136.6,37a.94.94,0,0,1,1.41.1,1.05,1.05,0,0,1-.09,1.54l-.27.24a.06.06,0,0,1-.08,0l-.68-.74a0,0,0,0,0-.06,0l-.69.64c-.07.06-.07.12,0,.16s.09,0,.16,0l.26-.24a.06.06,0,0,1,.08,0l.49.6a.06.06,0,0,1,0,.09l-.28.26a.94.94,0,0,1-1.46-.12,1,1,0,0,1,.15-1.51Zm.53.88s0,0,0,0,.11.12.13.1c.28-.26.31-.29.24-.36s-.09-.05-.15,0Z" transform="translate(-1.91 -2.24)"/><path class="cls-2" d="M138.86,38.15s0,0,.06,0l.56.63s-.1.19-.08.21h.06c.15-.05.24,0,.36.19a0,0,0,0,1,0,0l-.65.57s0,0-.06,0c-.2-.23-.4-.21-.77.11l-1.46,1.28a.05.05,0,0,1-.08,0l-.57-.66s0,0,0-.06Z" transform="translate(-1.91 -2.24)"/><path class="cls-2" d="M139.26,40a.94.94,0,0,1,1.4.18,1,1,0,0,1-.18,1.52l-.28.23a.06.06,0,0,1-.08,0l-.63-.78a0,0,0,0,0-.06,0l-.73.59c-.07.06-.07.12,0,.16a.12.12,0,0,0,.16,0l.28-.24a.05.05,0,0,1,.07,0l.46.62a.06.06,0,0,1,0,.09l-.3.24a.94.94,0,0,1-1.45-.2,1,1,0,0,1,.24-1.5Zm.48.9a0,0,0,0,0,0,0c.09.11.1.12.12.1.3-.24.33-.27.26-.35s-.08,0-.15,0Z" transform="translate(-1.91 -2.24)"/><path class="cls-2" d="M146.25,120.88s0,0,.29.13a1,1,0,0,1-1,1.73l-1.39-.84s0,0-.11.11a.06.06,0,0,1-.07,0l-.31-.19a.65.65,0,0,1-.25-.84.5.5,0,0,1,.44-.29c.05,0,.07,0,.08,0a.27.27,0,0,0,0-.09.52.52,0,0,1,0-.46c.13-.22.5-.43,1-.12l.37.23a.91.91,0,0,1,.41,1c-.07.47,0,.52.16.63s.12,0,.15,0,0-.1-.22-.24a.08.08,0,0,1,0-.08Zm-1.26.46a0,0,0,0,0,.06,0,.19.19,0,0,0-.08-.23l-.38-.23a.09.09,0,0,0-.13,0,.09.09,0,0,0,0,.14Z" transform="translate(-1.91 -2.24)"/><path class="cls-2" d="M143,121.64s0,0,.07,0l2.93,1.9a0,0,0,0,1,0,.06l-.4.62s-.26-.06-.28,0a.21.21,0,0,0,0,.06.49.49,0,0,1-.07.51.59.59,0,0,1-.85.14L142,123.29s0,0,0,0l.45-.69a0,0,0,0,1,.06,0l2.05,1.33a.11.11,0,0,0,.16,0s0-.09-.05-.14l-2.06-1.34s0,0,0,0Z" transform="translate(-1.91 -2.24)"/><path class="cls-2" d="M141.18,124.4s.17,0,.18,0,0,0,0-.08a.55.55,0,0,1,.11-.35c.17-.24.54-.4,1.34.15l1,.71c.75.52.73,1,.55,1.22a.42.42,0,0,1-.29.2l-.07,0s0,0,0,0l.86.59a.06.06,0,0,1,0,.08l-.44.64s0,0-.07,0l-3.68-2.55a0,0,0,0,1,0-.07Zm2.09,1.35a.15.15,0,0,0,.19,0s0-.1-.05-.13l-1.24-.86s-.09-.06-.13,0a.1.1,0,0,0,0,.07.19.19,0,0,0,.07.11Z" transform="translate(-1.91 -2.24)"/><path class="cls-2" d="M141.43,128s0,0,.07,0,.25.14.3.07a.1.1,0,0,0,0-.14c-.1-.08-.35,0-.79,0a1.16,1.16,0,0,1-1.06-.17.92.92,0,0,1-.22-1.4c.25-.32.75-.62,1.55,0a.07.07,0,0,1,0,.07l-.36.54a.06.06,0,0,1-.07,0c-.17-.12-.32-.14-.38-.07a.1.1,0,0,0,0,.13c.12.09.44,0,.86,0a1.2,1.2,0,0,1,1.05.21.93.93,0,0,1,.17,1.33,1,1,0,0,1-1.53.12s0-.05,0-.08Z" transform="translate(-1.91 -2.24)"/><path class="cls-2" d="M141.11,129a1,1,0,0,1-1.32,1.59l-1.33-1.07a.94.94,0,0,1-.08-1.39,1,1,0,0,1,1.38-.22Zm-1.82-.26s-.11-.05-.15,0,0,.1,0,.15l1.11.89a.11.11,0,0,0,.16,0c0-.05,0-.11,0-.15Z" transform="translate(-1.91 -2.24)"/><path class="cls-2" d="M135.64,131.47s0-.06,0-.09l.53-.6a.06.06,0,0,1,.08,0l1.83,1.6a.11.11,0,0,0,.16,0,.11.11,0,0,0,0-.16l-1.83-1.6a0,0,0,0,1,0-.08l.53-.62a.06.06,0,0,1,.08,0l1.84,1.61c.07.05.13,0,.16,0s0-.09,0-.15l-1.85-1.61s0,0,0-.07l.54-.62a0,0,0,0,1,.06,0l2.64,2.3a0,0,0,0,1,0,.07l-.52.6s-.25-.11-.27-.08,0,0,0,.08a.59.59,0,0,1-.14.48.54.54,0,0,1-.46.2s-.08,0-.09,0a.09.09,0,0,0,0,.08.71.71,0,0,1-.15.52.6.6,0,0,1-.84,0Z" transform="translate(-1.91 -2.24)"/><path class="cls-2" d="M137.37,133.34a1,1,0,0,1,0,1.42,1.06,1.06,0,0,1-1.54,0l-.26-.25a.05.05,0,0,1,0-.08l.69-.73s0,0,0-.05l-.68-.65c-.07-.07-.13-.06-.16,0s0,.09,0,.15l.27.25a.06.06,0,0,1,0,.08l-.57.53a.06.06,0,0,1-.08,0l-.28-.27a.93.93,0,0,1,0-1.46,1,1,0,0,1,1.51,0Zm-.84.59a0,0,0,0,0,0,0c-.1.1-.11.11-.09.13.28.26.31.29.38.22s0-.09,0-.15Z" transform="translate(-1.91 -2.24)"/><path class="cls-2" d="M136.64,136.83s0,.06,0,.09l-.61.59a.05.05,0,0,1-.08,0l-.76-.78s0,0,0,0,0,0,0,.07a.63.63,0,0,1-.18.42.56.56,0,0,1-.84,0l-2.05-2.1a0,0,0,0,1,0-.05l.59-.58h.06l1.73,1.78c.06.06.12.05.15,0s0-.09,0-.16l-1.73-1.77s0,0,0-.06l.61-.6s.06,0,.07,0Z" transform="translate(-1.91 -2.24)"/><path class="cls-2" d="M133.67,137.08a.94.94,0,0,1-.11,1.41,1.05,1.05,0,0,1-1.53-.1l-.25-.27a.05.05,0,0,1,0-.08l.74-.67a0,0,0,0,0,0-.06l-.63-.7c-.07-.07-.12-.07-.16,0a.11.11,0,0,0,0,.16l.25.27s0,.05,0,.07l-.6.49a.06.06,0,0,1-.09,0l-.26-.28a.94.94,0,0,1,.13-1.46,1,1,0,0,1,1.51.16Zm-.88.53s0,0,0,0-.11.1-.09.12c.26.29.29.31.36.25s0-.09,0-.15Z" transform="translate(-1.91 -2.24)"/><path class="cls-2" d="M132.52,139.36s0,0,0,.06l-.64.55s-.18-.1-.21-.08,0,0,0,.06,0,.24-.18.36a0,0,0,0,1-.06,0l-.56-.66s0,0,0,0c.23-.2.22-.4-.1-.77l-1.27-1.47a.06.06,0,0,1,0-.08l.66-.57s0,0,.06,0Z" transform="translate(-1.91 -2.24)"/><path class="cls-2" d="M130.68,139.73a.94.94,0,0,1-.19,1.4,1.05,1.05,0,0,1-1.52-.19l-.23-.28a.05.05,0,0,1,0-.08l.77-.63s0,0,0-.06l-.59-.73c-.06-.07-.12-.07-.16,0a.12.12,0,0,0,0,.16l.23.28a0,0,0,0,1,0,.07l-.62.46a.07.07,0,0,1-.09,0l-.24-.29a.94.94,0,0,1,.21-1.45,1,1,0,0,1,1.49.25Zm-.91.47h-.05c-.1.09-.12.1-.1.12.24.3.27.33.35.27s.05-.09,0-.16Z" transform="translate(-1.91 -2.24)"/><path class="cls-2" d="M57,150s0,0-.09.3a.91.91,0,0,1-1.27.4.92.92,0,0,1-.57-1.23l.68-1.47c0-.05,0-.05-.11-.11a0,0,0,0,1,0-.06l.15-.34a.67.67,0,0,1,.81-.33.49.49,0,0,1,.34.4.16.16,0,0,0,0,.08.18.18,0,0,0,.08,0,.51.51,0,0,1,.47,0c.23.1.48.45.23,1l-.19.41a.91.91,0,0,1-1,.51c-.47,0-.52,0-.61.23s0,.13,0,.15.1,0,.22-.24a0,0,0,0,1,.07,0Zm-.58-1.2a0,0,0,0,0,0,.06.2.2,0,0,0,.22-.11l.18-.4a.09.09,0,0,0,0-.13.09.09,0,0,0-.13,0Z" transform="translate(-1.91 -2.24)"/><path class="cls-2" d="M55.94,146.85a.06.06,0,0,1,0,.08l-1.55,3.12s0,0-.06,0l-.67-.33s0-.27,0-.28h0a.51.51,0,0,1-.52,0,.6.6,0,0,1-.24-.83L54.18,146s0,0,0,0l.74.36a0,0,0,0,1,0,.06l-1.09,2.19c0,.08,0,.13,0,.15s.1,0,.14-.06l1.1-2.2s0,0,.05,0Z" transform="translate(-1.91 -2.24)"/><path class="cls-2" d="M53,145.34s0,.18,0,.19h.09a.52.52,0,0,1,.35.07c.26.14.47.49,0,1.35l-.59,1.1c-.43.8-.87.83-1.15.69a.46.46,0,0,1-.23-.27l0-.07s0,0,0,0l-.5.92s0,0-.08,0l-.68-.37a0,0,0,0,1,0-.06L52.27,145s0,0,.07,0Zm-1.11,2.23c0,.08,0,.16,0,.19s.09,0,.12-.06l.71-1.32s.06-.1,0-.14a.09.09,0,0,0-.07,0,.14.14,0,0,0-.1.07Z" transform="translate(-1.91 -2.24)"/><path class="cls-2" d="M48.88,145.68s0,0,0,.07-.11.26,0,.31A.1.1,0,0,0,49,146c.07-.1,0-.35-.12-.78a1.16,1.16,0,0,1,.06-1.07.92.92,0,0,1,1.37-.36c.35.2.69.67.17,1.53a0,0,0,0,1-.06,0l-.58-.3s0,0,0-.06c.1-.2.11-.35,0-.39s-.09,0-.12,0,0,.44.14.85a1.19,1.19,0,0,1-.11,1.07.93.93,0,0,1-1.3.31,1,1,0,0,1-.28-1.52.06.06,0,0,1,.08,0Z" transform="translate(-1.91 -2.24)"/><path class="cls-2" d="M47.89,145.44a.92.92,0,0,1-1.37.22.93.93,0,0,1-.34-1.36l.92-1.42A1,1,0,0,1,48.83,144Zm.07-1.82a.11.11,0,0,0,0-.16.11.11,0,0,0-.15,0l-.77,1.2a.1.1,0,0,0,0,.15c.06,0,.11,0,.15-.05Z" transform="translate(-1.91 -2.24)"/><path class="cls-2" d="M44.88,140.25s0-.05.08,0l.65.47a.05.05,0,0,1,0,.08l-1.41,2a.11.11,0,0,0,0,.16s.1,0,.15,0l1.41-2a.05.05,0,0,1,.08,0l.66.48a0,0,0,0,1,0,.07l-1.42,2c0,.08,0,.13,0,.16a.11.11,0,0,0,.15,0l1.42-2s0,0,.06,0l.67.47s0,0,0,.06l-2,2.86a0,0,0,0,1-.07,0l-.64-.45s.08-.26,0-.28h-.08a.64.64,0,0,1-.49-.09.53.53,0,0,1-.24-.44s0-.08,0-.09a.11.11,0,0,0-.08,0,.73.73,0,0,1-.54-.1.59.59,0,0,1-.09-.83Z" transform="translate(-1.91 -2.24)"/><path class="cls-2" d="M43.21,142.18a.94.94,0,0,1-1.41.14,1,1,0,0,1-.17-1.52l.22-.29a.05.05,0,0,1,.08,0l.79.61s0,0,.06,0l.57-.75c.06-.07,0-.13,0-.16a.11.11,0,0,0-.15,0l-.22.29a0,0,0,0,1-.07,0l-.59-.51a.05.05,0,0,1,0-.08l.24-.31a.92.92,0,0,1,1.45-.13,1,1,0,0,1,.11,1.51Zm-.68-.77s0,0,0,0-.12-.09-.14-.07c-.23.3-.25.34-.18.4s.09,0,.15-.05Z" transform="translate(-1.91 -2.24)"/><path class="cls-2" d="M39.63,141.79s-.06,0-.09,0l-.65-.54s0,0,0-.08l.7-.84a.1.1,0,0,0,0-.05h-.07a.56.56,0,0,1-.43-.14.55.55,0,0,1-.05-.84l1.89-2.25a0,0,0,0,1,.05,0l.63.53a0,0,0,0,1,0,.06L40,139.53a.11.11,0,0,0,0,.16.11.11,0,0,0,.15,0l1.59-1.9s0,0,.06,0l.66.55s0,0,0,.07Z" transform="translate(-1.91 -2.24)"/><path class="cls-2" d="M39.1,138.87a.94.94,0,0,1-1.41,0,1,1,0,0,1-.06-1.54l.25-.27a0,0,0,0,1,.07,0l.75.66s0,0,.06,0l.62-.7c.07-.07.06-.12,0-.16s-.09,0-.15,0l-.25.27s0,0-.07,0l-.55-.55a.07.07,0,0,1,0-.09l.26-.28a.93.93,0,0,1,1.46,0,1,1,0,0,1,0,1.52Zm-.61-.82s0,0,0-.05-.11-.1-.13-.08c-.26.29-.28.32-.21.39s.09,0,.15,0Z" transform="translate(-1.91 -2.24)"/><path class="cls-2" d="M36.72,138a0,0,0,0,1-.06,0l-.61-.58s.07-.2.05-.22,0,0-.06,0-.24,0-.37-.15,0,0,0-.06l.59-.62s0,0,.06,0c.22.21.42.18.76-.17l1.34-1.42a0,0,0,0,1,.07,0l.64.6a.06.06,0,0,1,0,.07Z" transform="translate(-1.91 -2.24)"/><path class="cls-2" d="M36.16,136.17a.93.93,0,0,1-1.41,0,1,1,0,0,1,0-1.53l.26-.26a.06.06,0,0,1,.08,0l.7.71a0,0,0,0,0,.06,0l.67-.66c.07-.07.06-.13,0-.16a.1.1,0,0,0-.15,0l-.26.25a0,0,0,0,1-.07,0l-.52-.58a.07.07,0,0,1,0-.09l.28-.27a.93.93,0,0,1,1.46.07,1,1,0,0,1-.1,1.51Zm-.56-.86a0,0,0,0,0,0,0c-.09-.1-.11-.11-.13-.09-.27.27-.29.3-.23.37s.09,0,.15,0Z" transform="translate(-1.91 -2.24)"/><path class="cls-2" d="M34.05,134a0,0,0,0,0,0,.06c.09.09.1.1.07.13l-.65.59s0,0,0,0-.1-.11-.13-.08l-.39.35a0,0,0,0,1-.06,0l-.58-.63s0,0,0-.08l.36-.34a.05.05,0,0,0,0-.08c-.12-.13-.14-.15-.11-.17l.64-.59a0,0,0,0,1,.06,0c.13.13.14.15.18.12l1.15-1.07s0,0,0-.06-.15-.17-.13-.2c.25-.23.69-.63,1.1-.18.25.26.26.6-.26,1.09Z" transform="translate(-1.91 -2.24)"/><path class="cls-2" d="M33,133a1,1,0,0,1-1.33-1.56L33,130.29a1,1,0,0,1,1.39.16.94.94,0,0,1,0,1.39Zm.57-1.74a.1.1,0,0,0,0-.15c-.05-.05-.1,0-.16,0L32.4,132a.1.1,0,0,0,0,.15c0,.05.1,0,.15,0Z" transform="translate(-1.91 -2.24)"/><path class="cls-2" d="M31.53,131.27a1,1,0,0,1-1.28-1.61l1.31-1.08a1,1,0,0,1,1.31,1.59Zm.63-1.72c.05-.05.07-.1,0-.15s-.1,0-.16,0l-1.1.9c-.05,0-.07.11,0,.16s.1,0,.16,0Z" transform="translate(-1.91 -2.24)"/><path class="cls-2" d="M28.7,130.61s-.05,0-.07,0l-.62-.79a.05.05,0,0,1,0-.08l2.66-1.93a.11.11,0,0,1,.11,0l.44.57a.06.06,0,0,1,0,.09Zm2.83-3.48a.07.07,0,0,1,.09,0l.45.58a.07.07,0,0,1,0,.09l-.58.46a.08.08,0,0,1-.09,0l-.45-.58s0-.06,0-.07Z" transform="translate(-1.91 -2.24)"/></g></g><g id="Layer_5" data-name="Layer 5"><path class="cls-3" d="M26.67,78.46c-.22-1-.24-1.16-1-1.3a.74.74,0,0,1-.6-.62.79.79,0,0,1,.56-1l5.3-1.17,3.78,17c.22,1,.23,1.16,1,1.3a.73.73,0,0,1,.6.62.78.78,0,0,1-.55,1l-5.69,1.26a.78.78,0,0,1-.93-.67.75.75,0,0,1,.29-.82c.63-.45.58-.6.36-1.59Zm5.16-4.29.1,0A6.91,6.91,0,0,1,36,74,5,5,0,0,1,39,78c.73,3.07-.5,4.74-2.41,5.84v0c1.87,0,3.73.27,4.4,3.1l.52,2.36c.06.24.11.78.37.73s.21-.86.7-1c.26-.06.67.27.75.65a4,4,0,0,1-.61,2.46,2.88,2.88,0,0,1-2.06,1.47A2.75,2.75,0,0,1,38.13,93a5.72,5.72,0,0,1-1.55-3.22L36.17,88c-.27-1.23-.62-2.73-1.86-2.62L34,83.78c1-.38,1-1.29.71-2.6L34,77.94c-.3-1.34-.66-1.93-1.77-2.19Z" transform="translate(-1.91 -2.24)"/><path class="cls-3" d="M40.74,72.19,46,71l4.44,20-5.3,1.18a.79.79,0,0,1-.93-.67.76.76,0,0,1,.28-.82c.64-.45.59-.61.37-1.6l-3.11-14c-.22-1-.24-1.16-1-1.3a.74.74,0,0,1-.6-.62A.79.79,0,0,1,40.74,72.19Zm6.2-1.37,4.48-1,1.21,5.44a.6.6,0,0,1-.48.78c-.34.07-.5-.17-.69-.55-1-2-2.32-3.14-4.17-3.12Zm2,8.94c.78-.48.92-1.61.88-2.67,0-.48,0-.93.45-1,.62-.14.73.85.78,1.06l1.28,5.79c0,.21.36,1.15-.26,1.29-.42.09-.64-.31-.84-.74-.4-1-1-1.94-1.93-2ZM51,89.29c1.57-.63,2.49-2.38,2.55-4.64,0-.44.08-.89.44-1,.64-.14.76.67.79.78L56,89.81l-4.62,1Z" transform="translate(-1.91 -2.24)"/><path class="cls-3" d="M63.47,88.16l-5.1,1.13c-.44.1-1,.16-1.13-.62a.75.75,0,0,1,.28-.82c.64-.45.58-.61.36-1.6l-3.11-14c-.09-.4-.21-1.13-.62-1.2s-.85-.1-1-.77.33-.89.73-1L59,68.13ZM59.93,67.93c3.4-.81,7,1.72,8.73,8.57,1.61,6.25-1,10.72-4.29,11.46L64,86.41c1.18-.49.9-2,.67-3L62.17,72c-.22-1-.62-2.53-1.89-2.47Z" transform="translate(-1.91 -2.24)"/><path class="cls-2" d="M78.75,84.77l-2.39.53L68.92,68.67c-.21-.49-.3-.67-.71-.8a.82.82,0,0,1-.66-.7c-.19-.88.63-1.07,1.09-1.17l4.66-1c.44-.1,1.13-.34,1.32.52s-.76.87-.54,1.86a3.31,3.31,0,0,0,.25.65l4.17,9.38Zm.2-21,5.59,12.77.21,7L82.36,84,76.89,71.64l-.21-7.42Zm4.28,7.61L83.06,67a6.24,6.24,0,0,0-.1-1.13c-.31-1.39-1.53-.9-1.75-1.89-.13-.61.27-.81.63-.89l2.59-.58c.38-.08.83-.13,1,.57a.67.67,0,0,1-.28.76c-.87.81-.92,1.81-.89,3.2l.23,7.09,0,0Z" transform="translate(-1.91 -2.24)"/><path class="cls-2" d="M96.49,77.69c.22,1,.24,1.15,1,1.29a.75.75,0,0,1,.6.63.78.78,0,0,1-.56,1l-5.68,1.26a.78.78,0,0,1-.93-.66.73.73,0,0,1,.28-.82c.64-.45.58-.61.36-1.6l-3.11-14c-.22-1-.23-1.15-1-1.29a.73.73,0,0,1-.6-.63.77.77,0,0,1,.56-1l5.68-1.26a.77.77,0,0,1,.92.66.72.72,0,0,1-.28.82c-.63.45-.58.61-.36,1.6Zm1.25-7L96,71.09l-.35-1.55,1.77-.39-1.35-6.08c-.22-1-.23-1.16-1-1.3a.72.72,0,0,1-.6-.62.76.76,0,0,1,.55-1l5.69-1.27a.78.78,0,0,1,.92.67.73.73,0,0,1-.28.82c-.63.45-.58.61-.36,1.6l3.11,14c.22,1,.24,1.16,1,1.3a.75.75,0,0,1,.6.62.79.79,0,0,1-.56,1l-5.68,1.26a.78.78,0,0,1-.93-.67.75.75,0,0,1,.28-.82c.64-.45.58-.6.36-1.59Z" transform="translate(-1.91 -2.24)"/><path class="cls-2" d="M113.28,74c.22,1,.23,1.15,1,1.29a.74.74,0,0,1,.6.62.79.79,0,0,1-.56,1l-5.68,1.26a.78.78,0,0,1-.93-.67.76.76,0,0,1,.28-.82c.64-.45.59-.6.37-1.59l-3.11-14c-.22-1-.24-1.16-1-1.29a.74.74,0,0,1-.6-.63.77.77,0,0,1,.56-1l5.68-1.26a.77.77,0,0,1,.93.66.75.75,0,0,1-.28.82c-.64.45-.58.61-.36,1.6Z" transform="translate(-1.91 -2.24)"/><path class="cls-2" d="M112,56.39l2.89-.64.34,1.55c-.82,1.23-.71,3.06-.58,4.51.07.61.13,1.32-.43,1.45s-.82-.52-.84-.63Zm3.79-.84,4.92-1.09,3.78,17c.22,1,.23,1.15,1,1.29a.73.73,0,0,1,.6.62.78.78,0,0,1-.55,1l-5.69,1.26a.77.77,0,0,1-.92-.67.73.73,0,0,1,.28-.82c.63-.45.58-.6.36-1.59Zm10.1,4.31c0,.1.11.79-.49.92s-.82-.55-1-1.13c-.49-1.37-1.16-3.08-2.43-3.84l-.34-1.55,2.89-.64Z" transform="translate(-1.91 -2.24)"/><path class="cls-2" d="M126,53.28l5.3-1.18,4.44,20-5.3,1.18a.77.77,0,0,1-.92-.67.73.73,0,0,1,.28-.82c.63-.45.58-.6.36-1.59l-3.11-14c-.22-1-.24-1.16-1-1.29a.74.74,0,0,1-.6-.63A.77.77,0,0,1,126,53.28Zm6.21-1.38,4.47-1,1.21,5.43a.6.6,0,0,1-.48.78c-.34.08-.5-.17-.69-.55-1-2-2.32-3.14-4.17-3.12Zm2,8.94c.78-.48.93-1.61.88-2.67,0-.47,0-.93.45-1,.62-.14.73.85.78,1.06L137.6,64c.05.22.37,1.16-.26,1.3-.42.09-.63-.31-.84-.75-.4-1-1-1.93-1.92-2Zm2.11,9.53c1.57-.63,2.49-2.38,2.56-4.64.05-.43.07-.89.43-1,.65-.14.76.68.79.78l1.19,5.36-4.62,1Z" transform="translate(-1.91 -2.24)"/><path class="cls-4" d="M40.25,104.41a1,1,0,0,0-.08.72,1.18,1.18,0,0,0,.25.59l2.48,3.61c.56.82.71.67,1.21.56l.73,1c-2.89,3.33-6.51.68-7.08-2.29a5.4,5.4,0,0,1,1.8-5.17ZM40,102.77a8.25,8.25,0,0,1-1.25-2.87,3.85,3.85,0,0,1,2.52-4.73l.6-.07.32,1.46a1.1,1.1,0,0,0-.33,1.17A3.81,3.81,0,0,0,42.45,99l6.32,9.22a2.23,2.23,0,0,0,.95.93.57.57,0,0,1,.44.51.58.58,0,0,1-.41.77l-3.79.84Zm2.62-7.68c1,0,2.1,1.09,2.39,2.43a3.8,3.8,0,0,1-.58,3.08l-.67-1A2.34,2.34,0,0,0,44,97.8a1.84,1.84,0,0,0-1.16-1.4Zm4.08,8.8a2.71,2.71,0,0,0,0-1.17c-.18-.81-.62-1-.7-1.42s.48-.91.8-1c.55-.12.83.61,1,1.19a5.46,5.46,0,0,1-.38,3.4Z" transform="translate(-1.91 -2.24)"/><path class="cls-2" d="M47.69,93.46l3.86-.86L52,94.67c-1.1,1.64-.95,4.08-.77,6,.09.81.16,1.77-.59,1.93s-1.08-.69-1.11-.84Zm5.07-1.13,6.58-1.46,5,22.76c.3,1.32.32,1.54,1.35,1.73a1,1,0,0,1,.8.83,1,1,0,0,1-.75,1.33l-7.59,1.69a1,1,0,0,1-1.24-.89,1,1,0,0,1,.37-1.1c.86-.6.78-.81.49-2.13Zm13.5,5.75c0,.15.15,1.06-.66,1.24s-1.09-.74-1.34-1.5C63.59,96,62.69,93.69,61,92.68l-.46-2.08,3.87-.85Z" transform="translate(-1.91 -2.24)"/><path class="cls-2" d="M68.22,93.11c-.29-1.33-.31-1.55-1.34-1.73a1,1,0,0,1-.81-.84,1.06,1.06,0,0,1,.75-1.33l7.09-1.57,5,22.76c.29,1.32.31,1.54,1.34,1.73a1,1,0,0,1,.8.83,1,1,0,0,1-.74,1.33L72.76,116a1.05,1.05,0,0,1-1.24-.89,1,1,0,0,1,.38-1.1c.85-.6.77-.81.48-2.13Zm6.9-5.74.13,0c1.75-.38,3.56-.86,5.4-.18,2.06.78,3.41,2.55,4,5.26,1,4.1-.68,6.34-3.23,7.81l0,.07c2.49-.06,5,.36,5.87,4.14l.7,3.15c.07.32.15,1.06.5,1s.28-1.15.92-1.29c.35-.08.9.36,1,.86a5.33,5.33,0,0,1-.82,3.3,3.85,3.85,0,0,1-2.74,2,3.66,3.66,0,0,1-3.37-.83,7.56,7.56,0,0,1-2.08-4.31l-.54-2.43c-.37-1.65-.84-3.64-2.49-3.5L78,100.22c1.41-.5,1.33-1.73.94-3.48l-1-4.33c-.39-1.79-.88-2.58-2.36-2.93Z" transform="translate(-1.91 -2.24)"/><path class="cls-2" d="M102.62,109.92c-2.12.47-3.77.79-5.92-.15-2.82-1.26-3.44-2.55-3.84-4.33l-3.76-17c-.29-1.33-.31-1.55-1.34-1.73a1,1,0,0,1-.8-.84,1,1,0,0,1,.74-1.33l7.6-1.68a1,1,0,0,1,1.24.88,1,1,0,0,1-.38,1.1c-.85.6-.78.81-.48,2.14l3.82,17.21c.07.35.46,3.24,2.65,3.58Zm0-22.72c-1.42-4.37-2.83-2.6-3.17-4.14-.25-1.11.87-1.28,1.16-1.34l3.06-.68c.3-.07,1.38-.38,1.63.73.34,1.53-1.69.52-1.12,5.09l3,13.49c1.09,6-1.62,8.8-3.36,9.23l-.47-2.11c2.25-1.55,2.8-3.63,2.26-6.85Z" transform="translate(-1.91 -2.24)"/><path class="cls-2" d="M107.91,80.1,115,78.53l5.94,26.76-7.09,1.57a1,1,0,0,1-1.24-.89,1,1,0,0,1,.37-1.09c.86-.61.78-.81.49-2.14L109.31,84c-.29-1.32-.31-1.54-1.34-1.73a1,1,0,0,1-.81-.83A1.05,1.05,0,0,1,107.91,80.1Zm8.3-1.84,6-1.33,1.61,7.26a.8.8,0,0,1-.64,1c-.45.1-.67-.23-.92-.74-1.34-2.74-3.1-4.19-5.57-4.17Zm2.65,11.95c1-.64,1.24-2.15,1.18-3.57,0-.63,0-1.24.59-1.37.84-.18,1,1.14,1.05,1.42l1.72,7.73c.06.29.48,1.55-.35,1.73-.57.13-.85-.41-1.12-1-.55-1.31-1.37-2.59-2.58-2.73ZM121.68,103c2.1-.84,3.33-3.18,3.42-6.2.06-.58.1-1.19.58-1.3.86-.19,1,.9,1,1l1.59,7.15L122.14,105Z" transform="translate(-1.91 -2.24)"/></g><g id="Layer_7" data-name="Layer 7"><g class="cls-1"><circle class="cls-5" cx="85.39" cy="85.61" r="76.9" transform="translate(-14.02 154.86) rotate(-81.32)"/></g><circle class="cls-6" cx="85.39" cy="85.61" r="74.9" transform="translate(-14.03 154.86) rotate(-81.32)"/></g></svg>